<svg xmlns="http://www.w3.org/2000/svg" xmlns:xlink="http://www.w3.org/1999/xlink" viewBox="0 0 589.92 277.12"><defs><style>.cls-1{font-size:39.54px;font-family:BoardofDirectorsW00-Bold;font-weight:700;}.cls-1,.cls-6{fill:#719bd8;}.cls-2{letter-spacing:-0.03em;}.cls-3{font-size:41.15px;letter-spacing:0em;}.cls-4{font-size:24.11px;font-family:Poppins-Light, Poppins;font-weight:300;}.cls-5{fill:none;stroke:#000;stroke-miterlimit:10;stroke-width:0.99px;}.cls-7{fill:url(#linear-gradient);}.cls-8{fill:#fff;}</style><linearGradient id="linear-gradient" x1="2.58" y1="138.76" x2="292.55" y2="138.76" gradientUnits="userSpaceOnUse"><stop offset="0.06" stop-color="#b2cbf3"/><stop offset="1" stop-color="#92b6f0"/></linearGradient></defs><g id="Layer_2" data-name="Layer 2"><g id="Layer_1-2" data-name="Layer 1"><text class="cls-1" transform="translate(322.58 202.15)">AI <tspan class="cls-2" x="49.26" y="0">T</tspan><tspan x="68.67" y="0">ech </tspan><tspan class="cls-3" x="145.49" y="0">Living</tspan></text><path d="M346.55,98.52l9.66-27.29H402.8l31.63,91.65H398.67l-5.95-16.5H364.63l-6,16.5H324.75l21.8-64.36Zm32.87-7-13.55,36.31h26.06Z"/><path d="M509.6,71.23V98.52h-30v64.36H448.83V98.52h-30V71.23Z"/><path d="M503.18,162.88V98.52H483.54V71.23H534v64.36h51.2v27.29Z"/><text class="cls-4" transform="translate(324.61 240.98)">Adaptive Smart Living</text><line class="cls-5" x1="323.22" y1="215.27" x2="589.92" y2="215.27"/><path class="cls-6" d="M307.47,31a36.4,36.4,0,0,0-5-13.69,29.67,29.67,0,0,0-5.19-6.52,3.4,3.4,0,0,0-1-1A33.52,33.52,0,0,0,288.14,4a29.29,29.29,0,0,0-7.36-2.75,11.33,11.33,0,0,0-2.71-.61h0a1.07,1.07,0,0,0-.27-.12A39.12,39.12,0,0,0,267.66.21c-.39,0-.44.19-.4.54.19,1.7.36,3.4.5,5.1,0,.45.23.47.59.42a27.29,27.29,0,0,1,3.26-.19,29.8,29.8,0,0,1,21.63,9.13,35.64,35.64,0,0,1,4.41,5.69,3.52,3.52,0,0,0,.57,1A31.74,31.74,0,0,1,301.45,32c.06.44.31.32.54.3,1.6-.16,3.2-.36,4.8-.46C307.46,31.81,307.56,31.58,307.47,31Z"/><path class="cls-6" d="M282,34.18a2.55,2.55,0,0,0,.25-1.25,1.38,1.38,0,0,0,.08-.29,8,8,0,0,0-10.71-8.17c-4.2,1.57-6.38,6.61-4.51,10.45a1.76,1.76,0,0,0,.37.81,7.5,7.5,0,0,0,2.84,3C274.59,41.44,280.74,39.05,282,34.18Z"/><path class="cls-6" d="M295.86,31.71c0-.05,0-.09-.06-.14,0-.28-.07-.56-.13-.84A24.06,24.06,0,0,0,288,17.79a24.39,24.39,0,0,0-19.1-6.11c-.52.05-.55.26-.5.69.16,1.39.32,2.78.41,4.18,0,.62.18.79.85.72a18.35,18.35,0,0,1,12.48,3A18.61,18.61,0,0,1,290.39,33c.08.41.23.49.61.45,1.26-.16,2.52-.29,3.79-.43C296.39,32.94,296.06,33.06,295.86,31.71Z"/><path class="cls-7" d="M147.56.4h0a145,145,0,0,1,145,145v92a39.74,39.74,0,0,1-39.74,39.74H42.32A39.74,39.74,0,0,1,2.58,237.38v-92A145,145,0,0,1,147.56.4Z"/><path class="cls-8" d="M152,63.45H141.67a70.09,70.09,0,0,1-69,69.87H0v10.39H72.66a70.1,70.1,0,0,1,69,69.87h-.09v63.54H152V213.58a70.12,70.12,0,0,1,69.91-69.91V133.36A70.12,70.12,0,0,1,152,63.45Z"/></g></g></svg>